<?xml version="1.0" encoding="iso-8859-1"?>
<!-- Generator: Adobe Illustrator 18.1.1, SVG Export Plug-In . SVG Version: 6.00 Build 0)  -->
<svg version="1.1" id="Capa_1" xmlns="http://www.w3.org/2000/svg" xmlns:xlink="http://www.w3.org/1999/xlink" x="0px" y="0px"
	 viewBox="0 0 230.84 230.84" style="enable-background:new 0 0 230.84 230.84;" xml:space="preserve">
<g>
	<g>
		<path style="fill:#4DBB5B;" d="M160.706,174.397c0,12.083-4.714,23.474-13.27,32.018c-8.556,8.545-19.929,13.258-32.018,13.258
			c-12.095,0-23.468-4.708-32.018-13.264c-8.557-8.545-13.264-19.929-13.264-32.012c0-12.101,4.714-23.474,13.264-32.018
			c8.551-8.557,19.923-13.27,32.018-13.27c12.101,0,23.48,4.714,32.018,13.27C155.992,150.923,160.706,162.296,160.706,174.397z
			 M82.068,174.397c0,8.903,3.473,17.28,9.768,23.575c6.295,6.295,14.673,9.768,23.581,9.768s17.28-3.467,23.581-9.768
			c6.301-6.307,9.774-14.673,9.774-23.575c0-8.909-3.473-17.28-9.774-23.581c-6.307-6.301-14.673-9.774-23.581-9.774
			s-17.28,3.473-23.581,9.774C85.535,157.117,82.068,165.488,82.068,174.397z"/>
	</g>
	<g>
		<path style="fill:#010002;" d="M175.241,114.573l-8.437,8.437c-13.73-13.724-31.971-21.278-51.387-21.278
			c-19.41,0-37.657,7.56-51.381,21.278l-8.437-8.437c15.979-15.979,37.221-24.774,59.818-24.774
			C138.026,89.792,159.268,98.594,175.241,114.573z"/>
	</g>
	<g>
		<path style="fill:#010002;" d="M230.84,58.974l-8.431,8.437c-28.575-28.575-66.566-44.31-106.992-44.31
			c-40.414,0-78.405,15.735-106.98,44.31L0,58.974c30.825-30.831,71.811-47.807,115.417-47.807
			C159.023,11.167,200.015,28.143,230.84,58.974z"/>
	</g>
	<g>
		<path style="fill:#010002;" d="M203.053,86.767l-8.437,8.437c-43.66-43.648-114.719-43.648-158.373,0l-8.437-8.437
			C76.113,38.465,154.727,38.465,203.053,86.767z"/>
	</g>
</g>
<g>
</g>
<g>
</g>
<g>
</g>
<g>
</g>
<g>
</g>
<g>
</g>
<g>
</g>
<g>
</g>
<g>
</g>
<g>
</g>
<g>
</g>
<g>
</g>
<g>
</g>
<g>
</g>
<g>
</g>
</svg>
